<svg xmlns="http://www.w3.org/2000/svg" version="1.0" width="980.000000" height="776.000000" preserveAspectRatio="xMidYMid meet"><rect id="backgroundrect" width="100%" height="100%" x="0" y="0" fill="none" stroke="none"/>
<metadata>
Created by potrace 1.16, written by Peter Selinger 2001-2019
</metadata>

<g class="currentLayer" style=""><title>Layer 1</title><g transform="translate(0,776) scale(0.10000000149011612,-0.10000000149011612) " fill="#b80404" stroke="none" id="svg_1" class="selected" fill-opacity="1">
<path d="M0 6605 l0 -1155 1020 0 1020 0 0 135 0 135 215 0 215 0 0 -2525 0 -2525 -205 0 -205 0 0 -335 0 -335 1490 0 1490 0 0 335 0 335 -202 2 -203 3 0 2520 0 2520 1393 3 1393 2 90 -87 c118 -113 140 -147 183 -277 69 -204 118 -273 301 -419 236 -189 279 -259 241 -391 -42 -142 -201 -225 -350 -182 -100 29 -168 121 -187 252 -11 78 -35 121 -92 168 -40 32 -179 116 -192 116 -6 0 -4 -18 20 -220 40 -322 118 -461 312 -557 73 -36 82 -38 192 -41 186 -6 299 30 408 132 129 119 203 285 203 456 0 207 -95 351 -307 467 -43 24 -82 44 -86 46 -9 3 54 217 85 290 14 32 38 61 72 88 76 60 132 133 184 239 l47 95 3 126 c4 144 -9 214 -59 318 -40 81 -142 186 -229 234 -185 102 -362 112 -561 32 l-84 -35 -460 460 -460 460 -2325 2 -2325 3 -3 133 -3 132 -1019 0 -1020 0 0 -1155z m3840 477 c0 -4 -214 -221 -475 -482 l-476 -475 -378 380 c-396 398 -471 484 -471 539 0 18 3 36 7 39 9 10 1793 9 1793 -1z m2450 0 c0 -4 -211 -219 -470 -477 l-470 -470 -470 470 c-258 258 -470 473 -470 477 0 5 423 8 940 8 517 0 940 -3 940 -8z m-1680 -477 l475 -475 -965 1 -965 0 480 475 c264 260 484 474 490 474 6 0 224 -214 485 -475z m2359 71 l403 -403 -12 -72 -12 -71 -871 0 -872 0 475 475 c261 261 477 475 480 475 3 0 187 -182 409 -404z m-4634 -266 l280 -280 -288 0 -287 0 0 264 c0 222 3 296 14 296 0 0 127 -126 281 -280z m1474 -1105 c226 -228 411 -422 411 -431 0 -8 -98 -118 -219 -242 -283 -294 -1107 -1112 -1119 -1112 -17 0 -22 306 -22 1258 l0 942 269 0 268 0 412 -415z m435 177 c-1 -150 -5 -237 -12 -244 -7 -7 -84 62 -259 236 l-248 246 260 -3 260 -2 -1 -233z m-2 -2317 c0 -704 -4 -1296 -9 -1315 l-9 -35 -678 675 -678 675 678 675 678 675 9 -35 c5 -20 9 -595 9 -1315z m-835 -867 c678 -675 817 -821 808 -848 -4 -12 -176 -192 -382 -401 l-376 -379 -298 0 -299 0 0 933 c0 933 5 1207 22 1207 5 0 241 -231 525 -512z m837 -1420 l1 -203 -222 -3 c-123 -1 -223 1 -223 6 0 5 95 102 210 217 150 148 214 205 222 197 6 -6 11 -84 12 -214z" id="svg_2" fill="#b80404" fill-opacity="1"/>
<path d="M6945 2830 l-940 -940 163 -162 162 -163 785 785 785 785 783 -783 c430 -430 787 -782 792 -782 6 0 81 71 168 158 l157 157 -943 943 c-518 518 -949 942 -957 942 -8 0 -437 -423 -955 -940z" id="svg_3" fill="#b80404" fill-opacity="1"/>
<path d="M7142 2232 l-753 -747 0 -742 1 -743 1510 0 1510 0 0 744 0 743 -750 747 c-412 410 -753 746 -757 746 -5 0 -347 -337 -761 -748z m1348 -1172 l0 -590 -590 0 -590 0 0 590 0 590 590 0 590 0 0 -590z" id="svg_4" fill="#b80404" fill-opacity="1"/>
</g></g></svg>