<svg xmlns="http://www.w3.org/2000/svg" version="1.0" width="834.000000" height="597.000000" preserveAspectRatio="xMidYMid meet" style=""><rect id="backgroundrect" width="100%" height="100%" x="0" y="0" fill="none" stroke="none"/>
<metadata>
Created by potrace 1.16, written by Peter Selinger 2001-2019
</metadata>

<g class="currentLayer" style=""><title>Layer 1</title><g transform="translate(0,597) scale(0.10000000149011612,-0.10000000149011612) " fill="#d50b0b" stroke="none" id="svg_1" class="selected" fill-opacity="1">
<path d="M2575 5556 c-58 -14 -80 -25 -146 -73 -51 -36 -169 -176 -169 -199 0 -8 -4 -22 -9 -32 -18 -33 -31 -111 -31 -189 0 -81 31 -213 57 -244 17 -20 17 -126 0 -158 -26 -52 -58 -59 -277 -63 -180 -3 -202 -5 -211 -21 -6 -9 -14 -15 -18 -12 -5 2 -25 -6 -45 -20 -20 -14 -45 -25 -55 -25 -10 0 -24 -7 -31 -15 -7 -8 -37 -26 -69 -41 -31 -15 -63 -31 -71 -35 -8 -5 -22 -12 -30 -15 -49 -20 -80 -36 -85 -44 -3 -6 -13 -10 -21 -10 -9 0 -30 -11 -48 -25 -18 -14 -42 -25 -53 -25 -11 0 -26 -7 -33 -15 -7 -8 -20 -15 -30 -15 -10 0 -23 -7 -30 -15 -7 -8 -20 -15 -30 -15 -9 0 -29 -9 -43 -20 -14 -11 -32 -20 -40 -20 -8 0 -26 -9 -40 -20 -14 -11 -28 -20 -32 -20 -4 0 -36 -14 -72 -32 -69 -34 -113 -77 -113 -111 0 -12 -7 -96 -16 -187 -8 -91 -17 -234 -21 -318 -3 -84 -10 -155 -14 -158 -5 -3 -9 -25 -9 -49 0 -41 -3 -45 -45 -69 l-45 -27 0 -93 c0 -77 3 -96 18 -109 10 -10 25 -17 33 -17 8 0 43 -16 79 -35 62 -34 124 -45 146 -27 5 4 43 18 84 31 41 13 85 29 98 34 16 8 26 7 34 -1 7 -7 21 -12 33 -12 11 0 25 -8 32 -18 16 -26 41 -983 26 -1014 -6 -13 -15 -34 -21 -48 -5 -14 -38 -65 -73 -112 -35 -47 -136 -184 -224 -303 -88 -120 -180 -245 -205 -277 -25 -33 -50 -67 -55 -76 -6 -9 -50 -70 -98 -135 -74 -99 -89 -125 -93 -165 -5 -41 -2 -51 22 -80 15 -17 33 -32 41 -32 15 0 75 -44 130 -94 37 -34 41 -55 15 -79 -16 -14 -52 -17 -248 -19 l-229 -3 -3 -120 c-1 -66 1 -125 6 -132 6 -9 894 -14 3974 -19 l3966 -7 7 23 c5 15 3 26 -4 28 -6 2 -11 10 -11 17 0 7 -7 15 -15 19 -8 3 -15 12 -15 21 0 8 -4 15 -10 15 -5 0 -10 7 -10 15 0 9 -7 18 -15 21 -8 4 -15 12 -15 19 0 7 -7 15 -15 19 -8 3 -15 12 -15 20 0 7 -7 16 -15 20 -8 3 -15 12 -15 21 0 8 -4 15 -10 15 -5 0 -10 7 -10 15 0 8 -4 15 -10 15 -5 0 -10 6 -10 14 0 8 -4 16 -8 18 -5 1 -27 30 -49 63 -23 33 -50 70 -62 82 -12 12 -21 25 -21 28 0 4 -6 13 -12 20 -7 8 -18 20 -24 28 -10 11 -160 218 -277 382 -24 33 -102 141 -174 240 -226 312 -406 563 -458 637 -53 76 -86 121 -211 291 -85 117 -169 234 -249 348 -71 100 -95 119 -157 119 -61 0 -157 -27 -165 -46 -3 -8 -10 -14 -15 -14 -6 0 -33 -16 -60 -36 -42 -31 -53 -35 -71 -26 -12 6 -55 21 -95 33 -60 17 -90 20 -165 17 -104 -6 -133 -18 -201 -81 -39 -36 -72 -95 -221 -393 -96 -193 -175 -356 -175 -362 0 -7 -7 -12 -15 -12 -8 0 -22 -11 -31 -25 -18 -28 -47 -32 -84 -10 -14 8 -35 19 -47 24 -11 5 -24 15 -28 20 -3 6 -17 11 -31 11 -13 0 -24 5 -24 12 0 6 -3 9 -6 5 -3 -3 -16 3 -27 14 -36 33 -79 50 -139 56 l-57 6 -131 -129 c-71 -71 -130 -132 -130 -137 0 -5 9 1 21 14 19 23 20 23 10 2 -18 -36 -31 -37 -65 -4 -18 17 -38 31 -45 31 -7 0 -39 13 -70 28 -31 16 -76 38 -101 50 -25 12 -56 27 -70 35 -37 21 -184 89 -282 133 -49 21 -88 42 -88 46 0 4 -7 8 -15 8 -9 0 -63 23 -121 52 -104 51 -138 80 -175 149 -42 77 -132 263 -211 434 -15 33 -47 101 -71 151 -52 107 -52 107 -67 659 -9 340 -18 420 -56 540 -23 72 -73 171 -121 240 -50 73 -59 103 -43 149 19 58 46 83 108 101 92 26 141 54 214 123 107 102 152 212 151 372 -1 100 -28 217 -58 250 -8 9 -15 20 -15 25 0 13 -150 158 -157 151 -4 -3 -12 3 -20 14 -8 11 -22 20 -32 20 -9 0 -21 4 -26 9 -34 30 -252 41 -350 17z m-956 -1676 c-7 -30 -15 -59 -19 -65 -4 -5 -15 -47 -25 -92 -10 -46 -22 -83 -27 -83 -5 0 -7 -4 -4 -9 4 -5 2 -11 -3 -13 -13 -5 -71 -125 -64 -132 4 -3 0 -6 -7 -6 -7 0 -11 -3 -7 -6 3 -3 -3 -15 -14 -27 -10 -11 -19 -28 -19 -36 0 -9 -11 -38 -25 -65 -14 -27 -25 -55 -25 -61 0 -7 -7 -18 -15 -25 -8 -7 -15 -25 -15 -41 0 -19 -6 -30 -20 -34 -11 -3 -20 -14 -21 -23 0 -14 -2 -13 -8 3 -5 11 -35 33 -67 48 -33 16 -66 32 -74 36 -12 7 -15 29 -15 107 0 127 24 398 35 407 3 1 30 14 60 27 30 13 62 30 71 37 8 7 21 13 27 13 6 0 27 9 47 20 20 11 42 20 49 20 7 0 19 7 26 15 7 8 21 15 30 15 10 0 20 3 22 8 2 4 28 19 58 34 l55 28 4 -23 c1 -12 -3 -47 -10 -77z m942 -521 c-2 -13 -3 -103 -2 -199 1 -177 14 -292 35 -320 6 -8 41 -75 76 -147 36 -73 70 -133 77 -133 20 0 57 -60 45 -72 -12 -12 -86 32 -96 58 -3 8 -12 14 -20 14 -8 0 -57 20 -109 45 -52 25 -100 45 -105 45 -18 0 -57 43 -76 83 -9 20 -21 37 -26 37 -6 0 -10 8 -10 18 0 11 -7 33 -16 51 -13 25 -15 54 -12 129 5 116 13 134 114 255 41 48 74 92 74 97 0 6 6 9 13 8 7 -2 11 5 9 16 -5 26 6 48 21 43 6 -2 10 -15 8 -28z m-511 -1256 c106 -142 201 -265 210 -273 10 -8 25 -37 34 -65 14 -43 16 -130 18 -640 l3 -590 -470 -3 c-465 -2 -527 1 -509 30 3 5 -1 17 -9 26 -8 9 -36 60 -63 112 -39 76 -49 105 -49 145 0 52 31 128 63 153 9 6 12 12 8 12 -4 0 5 17 21 38 16 20 45 63 63 95 19 32 43 67 53 77 9 11 17 22 17 25 0 3 22 34 48 69 27 35 69 93 93 130 24 36 47 66 51 66 4 0 8 9 8 20 0 11 7 23 15 26 8 4 15 12 15 20 0 8 4 14 8 14 4 0 21 22 37 50 17 27 33 50 37 50 17 0 41 129 68 367 17 142 28 271 24 287 -4 18 -2 26 4 22 5 -3 96 -122 202 -263z m633 175 c36 -34 139 -88 472 -250 105 -51 192 -96 193 -100 2 -5 10 -8 18 -8 8 0 22 -4 32 -9 9 -6 64 -33 120 -61 57 -28 111 -55 120 -60 10 -5 24 -11 32 -14 8 -3 22 -10 30 -15 24 -14 228 -111 310 -147 41 -18 76 -38 78 -44 2 -5 21 -10 42 -10 45 0 60 -22 26 -38 -13 -6 -40 -30 -60 -55 -48 -59 -50 -108 -4 -149 17 -15 41 -28 53 -28 12 0 34 -9 49 -21 14 -11 31 -17 37 -13 6 3 15 0 20 -7 4 -7 18 -14 31 -14 29 0 31 -28 3 -33 -11 -2 -27 -10 -35 -17 -8 -8 -27 -17 -43 -20 -15 -4 -34 -17 -42 -29 -9 -11 -19 -20 -23 -19 -15 5 -47 -10 -60 -29 -7 -10 -18 -16 -23 -13 -5 4 -9 1 -9 -5 0 -6 -4 -9 -9 -5 -5 3 -12 1 -16 -5 -4 -6 -11 -8 -16 -4 -6 3 -30 -4 -54 -15 -25 -12 -48 -21 -52 -21 -19 0 -85 -89 -95 -128 -6 -23 -14 -45 -19 -48 -5 -3 -9 -14 -9 -26 0 -34 -62 -86 -110 -94 -35 -6 -55 -19 -103 -66 -33 -32 -58 -58 -55 -58 4 0 -7 -14 -23 -31 -16 -17 -29 -34 -29 -38 0 -3 -71 -5 -157 -3 -154 3 -159 4 -185 29 -15 14 -34 40 -43 57 -25 47 -38 68 -65 106 -27 38 -46 67 -56 90 -4 8 -15 24 -24 35 -36 42 -40 85 -50 544 -6 251 -15 478 -20 504 -10 49 -36 110 -70 162 -11 17 -25 41 -31 55 -6 14 -18 33 -26 42 -9 10 -12 18 -8 18 5 0 -17 25 -48 55 -56 53 -64 65 -50 78 11 12 21 8 56 -25z" id="svg_2" fill="#d50b0b" fill-opacity="1"/>
</g></g></svg>