<svg xmlns="http://www.w3.org/2000/svg" version="1.0" width="584.000000" height="584.000000" preserveAspectRatio="xMidYMid meet"><rect id="backgroundrect" width="100%" height="100%" x="0" y="0" fill="none" stroke="none"/>
<metadata>
Created by potrace 1.16, written by Peter Selinger 2001-2019
</metadata>

<g class="currentLayer" style=""><title>Layer 1</title><g transform="translate(0,584) scale(0.10000000149011612,-0.10000000149011612) " fill="#000099" stroke="none" id="svg_1" class="selected" fill-opacity="1">
<path d="M812 5308 c-16 -16 -17 -3472 -2 -3613 20 -182 77 -315 176 -413 35 -35 69 -60 74 -57 6 3 10 2 10 -4 0 -6 12 -14 28 -17 15 -4 31 -9 37 -12 27 -16 214 -25 231 -11 6 5 19 7 28 3 10 -4 16 -1 16 7 0 7 3 9 6 6 22 -22 204 129 204 169 0 8 4 14 9 14 11 0 51 92 53 125 1 14 6 25 10 25 4 0 8 470 8 1045 0 575 -3 1045 -7 1045 -5 0 -9 18 -9 39 -1 21 -9 54 -17 72 -8 19 -18 46 -21 60 -3 15 -37 60 -75 101 -92 99 -187 149 -323 172 l-38 7 -1 597 c-1 328 -2 608 -2 622 l-2 25 -190 3 c-140 2 -194 -1 -203 -10z m482 -1760 c3 -13 6 -448 6 -968 0 -862 -1 -948 -16 -969 l-17 -24 -18 24 c-18 23 -19 69 -19 966 0 588 4 951 10 967 12 33 45 35 54 4z" id="svg_2" fill="#000099" fill-opacity="1"/>
<path d="M3310 4611 c-119 -49 -182 -179 -150 -311 33 -136 210 -217 348 -158 39 17 106 86 128 133 40 85 16 205 -55 276 -72 72 -181 96 -271 60z" id="svg_3" fill="#000099" fill-opacity="1"/>
<path d="M2137 4606 c-38 -14 -140 -100 -129 -110 3 -3 0 -6 -6 -6 -7 0 -11 -3 -11 -7 3 -15 -14 -74 -22 -79 -12 -7 -12 -61 0 -68 5 -3 12 -23 16 -43 5 -21 9 -43 11 -50 3 -17 81 -85 123 -107 47 -25 133 -29 185 -9 60 24 118 74 144 126 29 59 29 162 0 222 -25 49 -89 112 -134 131 -42 18 -127 17 -177 0z" id="svg_4" fill="#000099" fill-opacity="1"/>
<path d="M4627 4046 c-27 -13 -59 -34 -71 -45 l-23 -22 -53 33 c-52 32 -56 33 -166 33 -112 0 -112 0 -153 -33 l-41 -33 -14 36 -15 35 -163 -2 -163 -3 0 -1420 0 -1420 155 0 155 0 5 1195 c5 1123 6 1198 23 1223 23 36 59 36 83 0 18 -27 19 -76 22 -1220 l2 -1192 33 -6 c17 -3 100 -5 182 -3 l150 3 5 1195 c5 1120 6 1197 23 1228 24 43 52 43 87 -2 13 -17 16 -173 20 -1220 l5 -1201 85 0 c82 0 88 1 143 38 31 21 69 54 84 74 l28 36 0 1251 0 1251 -27 50 c-33 63 -90 118 -148 144 -66 30 -188 29 -253 -3z" id="svg_5" fill="#000099" fill-opacity="1"/>
<path d="M2817 4042 c-16 -17 -17 -130 -17 -1424 0 -1273 1 -1406 16 -1412 9 -3 85 -6 169 -6 130 0 154 2 159 16 3 9 6 546 6 1194 0 757 4 1188 10 1205 17 45 61 55 243 55 113 0 167 4 175 12 8 8 12 56 12 148 l0 136 -32 36 c-42 47 -99 62 -195 54 -75 -6 -145 -28 -176 -55 -18 -15 -21 -13 -49 22 l-30 37 -137 0 c-121 0 -140 -2 -154 -18z" id="svg_6" fill="#000099" fill-opacity="1"/>
<path d="M2076 4010 c-63 -26 -115 -67 -188 -145 -24 -25 -56 -96 -74 -160 -18 -66 -21 -2112 -3 -2197 33 -157 156 -288 304 -325 44 -10 245 -11 245 -1 0 5 9 7 19 3 11 -3 26 1 35 10 9 9 16 14 16 10 0 -3 14 1 30 10 17 9 30 20 30 26 0 6 4 8 9 5 8 -5 31 19 82 81 26 34 68 125 83 183 15 57 17 116 14 455 l-3 390 -155 3 c-85 1 -165 0 -178 -3 l-23 -6 3 -233 c2 -129 0 -232 -4 -229 -5 2 -8 -56 -8 -130 0 -74 -5 -148 -11 -166 -10 -27 -15 -31 -49 -31 -67 0 -65 -16 -68 481 l-3 449 248 2 248 3 3 589 c2 650 2 659 -59 760 -40 68 -111 133 -179 165 -49 23 -69 26 -175 28 -113 2 -124 1 -189 -27z m228 -361 c20 -24 24 -35 16 -49 -6 -11 -10 -148 -10 -347 0 -370 -1 -373 -66 -373 -61 0 -65 21 -64 395 1 286 3 329 18 358 9 17 22 35 27 39 22 16 54 7 79 -23z" id="svg_7" fill="#000099" fill-opacity="1"/>
<path d="M3282 3468 c-9 -9 -12 -263 -12 -1140 l0 -1128 23 -5 c12 -3 83 -4 157 -3 l135 3 0 1140 0 1140 -145 3 c-105 2 -149 -1 -158 -10z" id="svg_8" fill="#000099" fill-opacity="1"/>
</g></g></svg>