<svg xmlns="http://www.w3.org/2000/svg" xmlns:xlink="http://www.w3.org/1999/xlink" version="1.1" width="800" height="800" style="enable-background:new 0 0 800 800;" xml:space="preserve"><rect id="backgroundrect" width="100%" height="100%" x="0" y="0" fill="none" stroke="none"/>
















<g class="currentLayer" style=""><title>Layer 1</title><g id="svg_1" class="selected" fill="#0404b8" fill-opacity="1">
	<path d="M214.418,263.604v463.304h131.209V574.348h108.967V726.91h131.211V263.604L400.111,139.322L214.418,263.604z    M334.729,552.554h-65.38v-65.382h65.38V552.554z M334.729,454.482h-65.38v-65.376h65.38V454.482z M334.729,356.414h-65.38v-65.382   h65.38V356.414z M465.49,291.032h65.383v65.382H465.49V291.032z M465.49,389.105h65.383v65.376H465.49V389.105z M465.49,487.172   h65.383v65.382H465.49V487.172z M432.805,552.554h-65.384v-65.382h65.384V552.554z M432.805,454.482h-65.384v-65.376h65.384   V454.482z M432.805,356.414h-65.384v-65.382h65.384V356.414z" id="svg_2" fill="#0404b8" fill-opacity="1"/>
	<polygon points="394.047,117.16 406.176,117.16 597.959,245.506 658.913,245.506 400.111,73.09 141.31,245.506 202.262,245.506     " id="svg_3" fill="#0404b8" fill-opacity="1"/>
	<path d="M783.654,452.672H616.572v274.236h167.082V452.672L783.654,452.672z M732.805,649.501H667.43V584.12h65.375V649.501z    M732.805,552.554H667.43v-65.382h65.375V552.554z" id="svg_4" fill="#0404b8" fill-opacity="1"/>
	<rect x="616.572021484375" y="411.32501220703125" width="183.42799377441406" height="19.55500030517578" id="svg_5" fill="#0404b8" fill-opacity="1"/>
	<path d="M183.43,452.672H16.344v274.236H183.43V452.672z M132.572,649.501H67.191V584.12h65.381V649.501L132.572,649.501z    M132.572,552.554H67.191v-65.382h65.381V552.554L132.572,552.554z" id="svg_6" fill="#0404b8" fill-opacity="1"/>
	<rect y="411.32501220703125" width="183.42999267578125" height="19.55500030517578" id="svg_7" fill="#0404b8" fill-opacity="1"/>
</g><g id="svg_8">
</g><g id="svg_9">
</g><g id="svg_10">
</g><g id="svg_11">
</g><g id="svg_12">
</g><g id="svg_13">
</g><g id="svg_14">
</g><g id="svg_15">
</g><g id="svg_16">
</g><g id="svg_17">
</g><g id="svg_18">
</g><g id="svg_19">
</g><g id="svg_20">
</g><g id="svg_21">
</g><g id="svg_22">
</g></g></svg>