<svg xmlns="http://www.w3.org/2000/svg" version="1.0" width="200.000000" height="200.000000" preserveAspectRatio="xMidYMid meet" style=""><rect id="backgroundrect" width="100%" height="100%" x="0" y="0" fill="none" stroke="none"/>
<metadata>
Created by potrace 1.16, written by Peter Selinger 2001-2019
</metadata>

<g class="currentLayer" style=""><title>Layer 1</title><g transform="translate(0,200) scale(0.10000000149011612,-0.10000000149011612) " fill="#b80404" stroke="none" id="svg_1" class="selected" fill-opacity="1">
<path d="M275 1698 c-22 -11 -42 -22 -44 -24 -6 -5 109 -215 173 -314 l61 -95 -32 -64 c-29 -56 -33 -74 -33 -142 0 -139 56 -238 171 -299 96 -51 201 -52 317 -4 9 5 12 -47 12 -240 l0 -246 210 0 210 0 0 140 0 140 140 0 140 0 0 -140 0 -140 110 0 110 0 0 690 0 690 -460 0 -460 0 0 -154 0 -154 -50 19 c-69 26 -189 26 -249 -1 -23 -11 -47 -18 -52 -15 -12 8 -107 165 -168 278 -29 53 -55 97 -59 97 -4 -1 -25 -10 -47 -22z m825 -340 l0 -101 125 6 126 6 -28 -34 c-15 -18 -58 -67 -95 -108 -38 -41 -68 -78 -68 -83 1 -5 44 -43 97 -84 l97 -75 -74 -7 c-41 -4 -99 -10 -127 -14 l-53 -5 0 -110 c0 -60 -2 -109 -5 -109 -3 0 -45 30 -94 66 l-88 66 43 40 c24 22 56 66 71 97 24 49 28 68 28 146 0 83 -3 95 -34 153 -19 35 -50 77 -70 92 -19 16 -32 32 -28 36 15 16 163 123 170 123 4 1 7 -45 7 -101z" id="svg_2" fill="#b80404" fill-opacity="1"/>
</g></g></svg>