<svg xmlns="http://www.w3.org/2000/svg" version="1.0" width="768.000000" height="768.000000" preserveAspectRatio="xMidYMid meet" style=""><rect id="backgroundrect" width="100%" height="100%" x="0" y="0" fill="none" stroke="none"/>


<g class="currentLayer" style=""><title>Layer 1</title><g transform="translate(0,768) scale(0.10000000149011612,-0.10000000149011612) " fill="#0404b8" stroke="none" id="svg_1" class="selected" fill-opacity="1">
<path d="M3565 7669 c-772 -54 -1515 -347 -2135 -843 -155 -125 -437 -404 -558 -554 -479 -592 -760 -1260 -848 -2019 -24 -205 -24 -622 0 -828 132 -1136 728 -2124 1664 -2759 535 -364 1114 -574 1782 -647 148 -17 592 -17 740 0 668 73 1244 282 1782 647 851 576 1437 1471 1623 2478 44 243 59 411 59 696 0 188 -5 308 -18 415 -88 755 -371 1429 -848 2017 -123 151 -404 430 -558 554 -378 302 -757 507 -1215 659 -470 156 -969 219 -1470 184z m665 -253 c227 -26 433 -68 625 -127 112 -35 125 -42 118 -68 -3 -13 5 -21 36 -31 29 -9 41 -19 41 -32 0 -11 11 -23 25 -28 20 -8 25 -16 25 -45 0 -33 4 -38 39 -53 26 -11 41 -25 44 -40 3 -15 0 -21 -7 -19 -267 111 -558 192 -831 231 -204 30 -544 46 -624 30 -33 -7 -43 -24 -13 -24 15 0 15 -2 2 -11 -11 -8 -12 -12 -2 -16 6 -2 12 -11 12 -19 0 -8 10 -14 25 -14 18 0 25 -5 25 -20 0 -11 7 -20 15 -20 8 0 15 -7 15 -15 0 -9 9 -15 25 -15 16 0 25 -6 25 -15 0 -9 9 -15 25 -15 22 0 25 -4 25 -35 0 -31 3 -35 25 -35 14 0 25 -6 25 -14 0 -7 21 -21 47 -31 52 -20 65 -30 76 -57 3 -10 16 -18 27 -18 11 0 20 -7 20 -15 0 -8 4 -15 9 -15 6 0 22 -11 37 -25 15 -14 31 -25 35 -25 5 0 9 -7 9 -15 0 -8 4 -15 9 -15 4 0 19 -11 32 -24 14 -13 41 -27 62 -31 22 -4 37 -13 37 -21 0 -8 11 -19 25 -24 33 -13 32 -28 -2 -24 l-28 4 28 -11 c15 -6 27 -17 27 -25 0 -8 14 -17 31 -21 18 -3 34 -14 36 -23 3 -9 29 -28 59 -41 29 -13 54 -29 54 -35 0 -5 9 -20 20 -32 14 -15 16 -22 8 -23 -10 0 -10 -2 0 -6 6 -2 12 -10 12 -17 0 -7 18 -21 40 -31 22 -10 40 -24 40 -32 0 -7 11 -18 25 -25 13 -6 31 -25 39 -42 8 -17 26 -45 40 -61 14 -17 26 -33 26 -37 0 -4 9 -10 20 -13 11 -3 23 -17 26 -30 3 -13 17 -32 30 -42 13 -10 24 -23 24 -30 0 -7 4 -13 8 -13 10 0 43 -56 37 -64 -3 -3 -2 -4 1 -2 10 8 48 -35 93 -101 23 -35 46 -63 51 -63 6 0 10 -7 10 -15 0 -7 6 -18 13 -22 17 -11 39 -57 36 -74 -3 -15 53 -101 84 -128 9 -8 17 -23 17 -32 0 -10 25 -43 55 -76 30 -32 55 -62 55 -67 0 -5 27 -37 60 -73 33 -35 60 -69 60 -75 0 -6 6 -19 13 -28 6 -8 -7 5 -30 30 -51 54 -57 45 -8 -13 19 -22 35 -47 35 -55 0 -7 19 -39 43 -70 85 -113 177 -269 177 -301 0 -12 11 -44 25 -71 39 -77 85 -198 85 -224 0 -13 15 -84 34 -158 36 -137 73 -407 59 -417 -152 -108 -330 -219 -479 -297 l-121 -64 -16 -78 c-9 -42 -17 -88 -17 -100 0 -55 -107 -287 -187 -407 -18 -27 -33 -55 -33 -62 0 -27 -89 -140 -177 -223 -87 -82 -208 -172 -314 -233 l-46 -27 -6 362 c-4 199 -7 658 -7 1020 l0 658 -895 0 -895 0 0 -175 0 -175 28 0 c45 0 223 -29 279 -45 64 -19 115 -61 133 -112 12 -31 15 -182 18 -836 l3 -798 -79 40 c-44 22 -82 38 -85 35 -3 -3 -39 16 -79 42 -40 26 -81 47 -90 46 -10 0 -20 3 -23 8 -3 5 -12 7 -19 4 -8 -3 -17 -1 -20 5 -4 6 -13 8 -20 5 -7 -3 -19 2 -26 11 -7 8 -20 15 -29 15 -10 0 -28 11 -40 24 -13 14 -29 22 -36 20 -7 -3 -16 0 -20 5 -3 6 -10 9 -14 7 -4 -3 -20 8 -36 24 -15 16 -34 26 -42 23 -7 -3 -21 1 -31 10 -9 8 -27 18 -40 22 -12 3 -33 16 -46 28 -69 65 -101 87 -117 82 -12 -4 -22 1 -29 15 -6 12 -14 19 -18 16 -3 -3 -14 6 -24 21 -10 16 -18 24 -18 20 0 -5 -14 5 -31 22 -17 17 -35 29 -40 25 -5 -3 -9 0 -9 5 0 6 -7 11 -15 11 -8 0 -15 5 -15 11 0 5 -5 7 -12 3 -6 -4 -8 -3 -5 4 4 5 4 17 1 26 -6 15 -7 15 -18 1 -10 -14 -14 -11 -31 17 -21 37 -45 64 -45 51 0 -4 -14 13 -30 40 -17 26 -34 47 -38 47 -5 0 -14 10 -20 23 -8 17 -11 18 -11 5 -1 -21 -31 -25 -31 -5 0 7 -15 29 -32 49 -18 20 -40 46 -48 58 -25 37 -67 80 -73 74 -3 -3 -8 9 -12 27 -7 31 -8 32 -21 14 -13 -17 -14 -17 -14 -1 0 9 -11 28 -24 41 -13 13 -29 40 -36 60 -6 19 -18 35 -26 35 -9 0 -14 11 -14 29 0 32 -20 54 -21 24 0 -15 -2 -14 -11 5 -6 12 -19 22 -30 22 -14 0 -18 8 -18 33 0 21 -7 38 -20 47 -11 8 -20 23 -20 33 0 17 -22 47 -34 47 -3 0 -6 -7 -6 -16 0 -14 -2 -14 -15 0 -8 8 -15 28 -15 45 0 20 -5 31 -14 31 -17 0 -26 22 -26 61 0 19 -5 29 -15 29 -9 0 -15 9 -15 21 0 23 -25 53 -39 45 -10 -7 -21 27 -21 67 0 17 -5 27 -15 27 -8 0 -15 9 -15 20 0 12 -7 20 -16 20 -12 0 -15 9 -14 38 1 20 2 43 1 50 -1 18 -31 15 -31 -4 0 -14 -2 -14 -15 0 -8 8 -15 28 -15 45 0 21 -5 31 -16 31 -8 0 -13 4 -10 9 4 5 0 11 -6 13 -8 3 -13 23 -13 51 0 41 -3 47 -21 47 -22 0 -34 17 -34 50 0 10 -5 20 -10 22 -6 2 -11 18 -13 36 -2 26 -6 32 -20 28 -11 -2 -17 0 -14 7 4 14 -15 37 -149 177 -60 63 -133 140 -161 170 l-51 54 -26 -82 c-115 -365 -163 -720 -153 -1121 13 -478 105 -874 310 -1332 l25 -56 -22 4 c-12 3 -30 20 -41 41 -17 31 -26 37 -58 40 -30 3 -40 9 -47 28 -6 14 -18 24 -29 24 -13 0 -24 11 -32 35 -10 28 -18 35 -39 35 -29 0 -29 -1 -90 182 -119 355 -175 713 -174 1123 0 345 28 564 111 890 319 1253 1323 2256 2578 2578 220 57 434 91 700 111 98 8 472 -4 595 -18z m1341 -2253 c13 -16 12 -17 -3 -4 -10 7 -18 15 -18 17 0 8 8 3 21 -13z m-1099 -2140 c3 -1341 4 -1390 23 -1448 40 -123 130 -181 331 -212 l104 -16 0 -118 0 -119 -1050 0 -1050 0 0 118 0 119 99 16 c192 31 261 69 310 170 50 101 52 160 49 1337 l-3 1065 -23 66 c-39 117 -115 163 -321 196 l-111 17 0 98 0 98 820 0 820 0 2 -1387z" id="svg_2" fill="#0404b8" fill-opacity="1"/>
<path d="M3714 6536 c-440 -101 -691 -538 -549 -956 78 -229 274 -411 515 -476 88 -24 271 -24 360 -1 148 39 311 145 396 258 104 138 144 251 152 420 6 147 -13 239 -75 369 -39 81 -59 107 -137 185 -143 143 -283 202 -491 210 -73 3 -131 0 -171 -9z m353 -100 c160 -51 298 -170 373 -318 55 -109 74 -204 67 -337 -8 -178 -65 -308 -187 -431 -122 -121 -255 -179 -430 -187 -76 -4 -124 -1 -174 11 -233 55 -420 234 -492 472 -13 43 -18 91 -18 174 0 99 4 126 28 195 79 228 254 386 491 441 91 21 241 12 342 -20z" id="svg_3" fill="#0404b8" fill-opacity="1"/>
</g></g></svg>