<svg xmlns="http://www.w3.org/2000/svg" version="1.0" width="560.000000" height="720.000000" preserveAspectRatio="xMidYMid meet"><rect id="backgroundrect" width="100%" height="100%" x="0" y="0" fill="none" stroke="none"/>
<metadata>
Created by potrace 1.16, written by Peter Selinger 2001-2019
</metadata>

<g class="currentLayer" style=""><title>Layer 1</title><g transform="translate(0,720) scale(0.10000000149011612,-0.10000000149011612) " fill="#d50b0b" stroke="none" id="svg_1" class="" fill-opacity="1">
<path d="M1517.0909090042114,6334.909090995789 c-42,-7 -107,-25 -145,-39 c-64,-24 -192,-90 -203,-104 c-3,-3 -30,-25 -60,-48 c-53,-40 -69,-57 -139,-148 c-17,-22 -35,-45 -40,-51 c-19,-23 -81,-163 -103,-234 l-23,-75 l0,-1770 c0,-1630 1,-1774 17,-1820 c60,-180 101,-255 199,-370 c28,-32 163,-144 197,-163 c91,-51 220,-102 259,-102 c19,0 9,-19 -77,-147 c-55,-82 -103,-153 -108,-159 c-5,-5 -15,-21 -22,-35 c-7,-13 -16,-26 -19,-29 c-4,-3 -47,-66 -96,-140 c-49,-74 -92,-137 -97,-138 c-19,-8 -7,-43 18,-52 c14,-6 143,-10 292,-10 l267,0 l66,98 l66,97 l1043,0 l1043,0 l66,-97 l66,-98 l273,0 c263,0 312,5 312,31 c0,5 -35,62 -77,125 c-43,63 -87,130 -98,147 c-10,18 -25,38 -32,45 c-7,7 -13,17 -13,22 c0,5 -6,15 -12,22 c-17,18 -208,305 -208,312 c0,3 8,6 18,6 c53,1 239,85 317,145 c59,44 168,156 202,206 c53,78 90,160 135,294 c11,33 13,367 13,1810 l0,1770 l-23,75 c-22,71 -84,211 -103,234 c-5,6 -23,29 -40,51 c-70,91 -86,108 -139,148 c-30,23 -57,44 -60,47 c-8,10 -103,65 -135,79 c-68,30 -145,53 -225,66 c-124,21 -2457,20 -2572,-1 zm1789,-211 c66,-31 73,-56 73,-251 l0,-173 l-39,-42 l-40,-42 l-443,-3 c-244,-2 -462,0 -486,3 c-32,5 -53,16 -83,46 l-39,39 l0,169 c0,158 1,170 23,202 c46,70 40,69 545,69 c403,0 458,-2 489,-17 zm703,-721 c84,-32 129,-61 188,-118 c121,-120 142,-207 142,-598 c0,-258 -7,-352 -31,-421 c-53,-148 -154,-243 -309,-291 c-69,-21 -2303,-20 -2373,1 c-112,34 -229,130 -275,226 c-48,99 -52,139 -52,491 c0,361 2,376 59,497 c45,96 192,201 308,221 c26,4 557,7 1178,6 c915,-1 1137,-4 1165,-14 zm-2240,-2758 c79,-18 134,-49 195,-110 c93,-93 135,-234 104,-348 c-51,-188 -197,-306 -379,-306 c-183,0 -327,116 -379,306 c-28,102 4,229 82,326 c46,57 129,110 205,129 c83,22 92,22 172,3 zm2238,1 c84,-20 130,-45 190,-103 c97,-95 142,-239 111,-356 c-51,-188 -197,-306 -379,-306 c-182,0 -328,118 -379,306 c-31,114 11,255 104,348 c60,59 116,92 190,110 c77,19 88,19 163,1 z" id="svg_2" fill="#d50b0b" fill-opacity="1"/>
</g></g></svg>